<svg
  xmlns="http://www.w3.org/2000/svg"
  xmlns:xlink="http://www.w3.org/1999/xlink"
  id="svg"
  version="1.1"
  width="400"
  height="60.226515656229175"
  viewBox="0, 0, 400,60.226515656229175"
><g id="svgg"><path
      id="path0"
      d="M156.833 30.083 L 156.833 60.167 159.750 60.167 L 162.667 60.167 162.667 30.083 L 162.667 0.000 159.750 0.000 L 156.833 0.000 156.833 30.083 "
      stroke="none"
      fill="#3c94b4"
      fill-rule="evenodd"
    /><path
      id="path1"
      d="M187.744 11.177 C 187.691 11.263,187.347 11.333,186.980 11.333 C 186.614 11.333,186.348 11.390,186.391 11.458 C 186.433 11.527,186.269 11.597,186.026 11.613 C 185.282 11.663,184.500 11.864,184.500 12.006 C 184.500 12.080,184.275 12.190,184.000 12.250 C 183.725 12.310,183.500 12.429,183.500 12.513 C 183.500 12.598,183.387 12.667,183.250 12.667 C 183.112 12.667,183.000 12.746,183.000 12.843 C 183.000 12.940,182.925 12.973,182.833 12.917 C 182.742 12.860,182.667 12.893,182.667 12.990 C 182.667 13.087,182.589 13.167,182.494 13.167 C 182.119 13.167,179.776 15.728,179.559 16.375 C 179.505 16.535,179.396 16.667,179.316 16.667 C 179.236 16.667,179.123 16.967,179.064 17.333 C 179.005 17.700,178.909 18.000,178.850 18.000 C 178.648 18.000,178.330 19.773,178.436 20.304 C 178.505 20.648,178.476 20.833,178.354 20.833 C 178.236 20.833,178.167 21.204,178.167 21.833 C 178.167 22.454,178.237 22.833,178.351 22.833 C 178.467 22.833,178.496 22.995,178.429 23.261 C 178.312 23.727,178.662 25.500,178.871 25.500 C 178.942 25.500,179.000 25.650,179.000 25.833 C 179.000 26.017,179.079 26.167,179.177 26.167 C 179.274 26.167,179.312 26.233,179.263 26.313 C 179.148 26.499,179.639 27.500,179.846 27.500 C 179.930 27.500,180.000 27.613,180.000 27.750 C 180.000 27.887,180.070 28.000,180.155 28.000 C 180.241 28.000,180.355 28.131,180.410 28.292 C 180.464 28.452,180.863 28.845,181.296 29.166 C 181.729 29.486,182.121 29.794,182.167 29.851 C 182.213 29.908,182.419 30.008,182.625 30.072 C 182.831 30.136,183.000 30.252,183.000 30.330 C 183.000 30.407,183.300 30.521,183.667 30.583 C 184.033 30.645,184.333 30.764,184.333 30.848 C 184.333 30.932,184.468 31.000,184.633 31.000 C 184.798 31.000,185.010 31.077,185.104 31.171 C 185.199 31.265,185.664 31.388,186.138 31.444 C 186.612 31.500,187.000 31.605,187.000 31.677 C 187.000 31.748,187.752 31.860,188.670 31.925 C 189.589 31.990,190.381 32.109,190.430 32.188 C 190.479 32.268,190.928 32.333,191.427 32.333 C 191.925 32.333,192.333 32.397,192.333 32.476 C 192.333 32.554,192.834 32.665,193.446 32.722 C 194.058 32.780,194.602 32.892,194.655 32.972 C 194.707 33.053,195.031 33.170,195.375 33.234 C 195.719 33.297,196.000 33.420,196.000 33.508 C 196.000 33.595,196.081 33.667,196.179 33.667 C 196.278 33.667,196.584 33.892,196.859 34.167 C 197.134 34.442,197.428 34.667,197.513 34.667 C 197.597 34.667,197.667 34.819,197.667 35.005 C 197.667 35.191,197.779 35.387,197.917 35.440 C 198.054 35.492,198.167 35.715,198.167 35.934 C 198.167 36.154,198.239 36.333,198.328 36.333 C 198.417 36.333,198.446 36.446,198.394 36.583 C 198.338 36.729,198.392 36.834,198.524 36.836 C 198.698 36.838,198.693 36.875,198.500 37.000 C 198.333 37.108,198.319 37.162,198.458 37.164 C 198.605 37.166,198.667 37.512,198.667 38.333 C 198.667 38.975,198.596 39.500,198.510 39.500 C 198.423 39.500,198.381 39.646,198.415 39.825 C 198.486 40.195,198.159 41.167,197.963 41.167 C 197.892 41.167,197.833 41.266,197.833 41.388 C 197.833 41.677,196.238 43.288,195.821 43.420 C 195.645 43.477,195.500 43.592,195.500 43.676 C 195.500 43.760,195.200 43.877,194.833 43.936 C 194.467 43.995,194.167 44.108,194.167 44.188 C 194.167 44.268,193.957 44.333,193.700 44.333 C 193.443 44.333,193.140 44.427,193.025 44.542 C 192.734 44.833,187.136 44.826,187.039 44.534 C 187.002 44.424,186.795 44.333,186.579 44.333 C 186.363 44.333,186.143 44.263,186.089 44.176 C 186.036 44.090,185.656 43.969,185.246 43.907 C 184.836 43.846,184.500 43.735,184.500 43.661 C 184.500 43.587,184.290 43.480,184.032 43.424 C 183.775 43.367,183.459 43.174,183.329 42.994 C 183.199 42.814,183.003 42.667,182.893 42.667 C 182.782 42.667,182.467 42.442,182.192 42.167 C 181.917 41.892,181.639 41.667,181.574 41.667 C 181.508 41.667,181.281 41.479,181.069 41.250 C 180.485 40.620,180.267 40.714,178.741 42.254 C 177.569 43.437,176.790 44.689,177.500 44.250 C 177.592 44.193,177.667 44.238,177.667 44.350 C 177.667 44.599,179.134 45.967,179.539 46.096 C 179.701 46.147,179.833 46.259,179.833 46.345 C 179.833 46.430,179.942 46.500,180.075 46.500 C 180.208 46.500,180.377 46.598,180.450 46.717 C 180.591 46.947,181.674 47.500,181.984 47.500 C 182.084 47.500,182.167 47.574,182.167 47.665 C 182.167 47.755,182.467 47.877,182.833 47.936 C 183.200 47.995,183.500 48.108,183.500 48.188 C 183.500 48.268,183.688 48.333,183.917 48.333 C 184.146 48.333,184.333 48.396,184.333 48.472 C 184.333 48.549,184.427 48.621,184.542 48.633 C 184.656 48.645,185.256 48.705,185.875 48.767 C 186.494 48.828,187.000 48.945,187.000 49.025 C 187.000 49.105,188.350 49.165,190.000 49.158 C 191.650 49.152,193.000 49.087,193.000 49.014 C 193.000 48.941,193.537 48.837,194.192 48.782 C 194.848 48.727,195.463 48.603,195.559 48.508 C 195.655 48.412,195.906 48.333,196.117 48.333 C 196.328 48.333,196.500 48.262,196.500 48.174 C 196.500 48.087,196.762 47.966,197.083 47.906 C 197.404 47.845,197.667 47.736,197.667 47.661 C 197.667 47.587,197.892 47.477,198.167 47.417 C 198.442 47.356,198.667 47.238,198.667 47.153 C 198.667 47.069,198.752 47.000,198.856 47.000 C 198.960 47.000,199.219 46.813,199.431 46.583 C 199.644 46.354,199.878 46.167,199.952 46.167 C 200.158 46.167,201.000 45.344,201.000 45.142 C 201.000 45.045,201.188 44.817,201.417 44.637 C 201.646 44.457,201.833 44.202,201.833 44.071 C 201.833 43.940,201.905 43.833,201.992 43.833 C 202.080 43.833,202.201 43.571,202.261 43.250 C 202.321 42.929,202.437 42.667,202.519 42.667 C 202.600 42.667,202.667 42.560,202.667 42.431 C 202.667 42.301,202.743 42.169,202.836 42.138 C 202.929 42.107,203.052 41.576,203.110 40.958 C 203.168 40.339,203.279 39.833,203.357 39.833 C 203.436 39.833,203.500 39.158,203.500 38.333 C 203.500 37.508,203.436 36.833,203.357 36.833 C 203.279 36.833,203.168 36.327,203.110 35.709 C 203.052 35.091,202.929 34.560,202.836 34.529 C 202.743 34.498,202.667 34.291,202.667 34.069 C 202.667 33.848,202.600 33.667,202.518 33.667 C 202.436 33.667,202.322 33.479,202.265 33.250 C 202.207 33.021,202.087 32.833,201.997 32.833 C 201.907 32.833,201.833 32.726,201.833 32.595 C 201.833 32.465,201.656 32.218,201.439 32.047 C 201.222 31.877,200.993 31.575,200.931 31.377 C 200.868 31.179,200.679 30.974,200.512 30.921 C 200.345 30.867,199.950 30.573,199.634 30.266 C 199.318 29.959,198.877 29.651,198.654 29.581 C 198.432 29.512,198.213 29.409,198.167 29.353 C 197.942 29.076,197.226 28.805,196.487 28.717 C 196.036 28.664,195.667 28.560,195.667 28.487 C 195.667 28.414,195.535 28.356,195.375 28.359 C 194.614 28.371,192.833 28.103,192.833 27.976 C 192.833 27.897,192.458 27.833,192.000 27.833 C 191.542 27.833,191.167 27.769,191.167 27.691 C 191.167 27.612,190.475 27.496,189.629 27.432 C 188.784 27.368,188.053 27.252,188.004 27.174 C 187.956 27.096,187.560 26.979,187.125 26.914 C 186.690 26.849,186.333 26.729,186.333 26.648 C 186.333 26.566,186.221 26.500,186.083 26.500 C 185.946 26.500,185.833 26.433,185.833 26.351 C 185.833 26.270,185.631 26.152,185.383 26.090 C 185.136 26.028,184.765 25.795,184.558 25.572 C 184.352 25.349,184.100 25.167,183.998 25.167 C 183.897 25.167,183.860 25.092,183.917 25.000 C 183.973 24.908,183.948 24.833,183.861 24.833 C 183.774 24.833,183.651 24.628,183.588 24.377 C 183.525 24.126,183.386 23.866,183.278 23.799 C 183.009 23.633,183.007 19.702,183.276 19.535 C 183.383 19.470,183.522 19.137,183.586 18.797 C 183.651 18.448,183.821 18.138,183.976 18.086 C 184.127 18.035,184.438 17.734,184.667 17.417 C 184.896 17.100,185.215 16.796,185.375 16.742 C 185.535 16.688,185.667 16.580,185.667 16.502 C 185.667 16.424,185.892 16.310,186.167 16.250 C 186.442 16.190,186.667 16.071,186.667 15.987 C 186.667 15.902,186.822 15.833,187.012 15.833 C 187.202 15.833,187.468 15.723,187.603 15.588 C 187.933 15.258,193.681 15.293,193.792 15.625 C 193.830 15.740,194.042 15.833,194.264 15.833 C 194.485 15.833,194.667 15.899,194.667 15.979 C 194.667 16.059,194.967 16.172,195.333 16.231 C 195.700 16.289,196.000 16.406,196.000 16.491 C 196.000 16.575,196.169 16.698,196.375 16.763 C 196.581 16.828,196.848 17.020,196.968 17.191 C 197.088 17.361,197.296 17.500,197.431 17.500 C 197.567 17.500,197.719 17.610,197.771 17.744 C 197.822 17.878,198.008 18.033,198.184 18.089 C 198.361 18.145,198.462 18.260,198.409 18.345 C 197.976 19.046,199.250 18.278,200.388 17.153 C 201.923 15.634,202.188 14.500,201.007 14.500 C 200.911 14.500,200.833 14.421,200.833 14.323 C 200.833 14.226,200.766 14.188,200.684 14.239 C 200.602 14.290,200.491 14.218,200.438 14.080 C 200.385 13.942,200.152 13.756,199.921 13.668 C 199.689 13.580,199.500 13.440,199.500 13.357 C 199.500 13.274,199.331 13.151,199.125 13.084 C 198.919 13.016,198.713 12.948,198.667 12.931 C 198.621 12.914,198.415 12.843,198.208 12.772 C 198.002 12.702,197.833 12.580,197.833 12.502 C 197.833 12.424,197.608 12.310,197.333 12.250 C 197.058 12.190,196.833 12.071,196.833 11.987 C 196.833 11.902,196.702 11.832,196.542 11.831 C 196.381 11.829,195.950 11.720,195.583 11.588 C 195.217 11.456,194.560 11.345,194.125 11.341 C 193.690 11.337,193.333 11.258,193.333 11.166 C 193.333 10.949,187.878 10.959,187.744 11.177 M219.167 11.821 C 219.167 12.090,219.054 12.422,218.917 12.560 C 218.779 12.697,218.667 12.965,218.667 13.155 C 218.667 13.345,218.596 13.500,218.510 13.500 C 218.424 13.500,218.303 13.838,218.241 14.250 C 218.179 14.662,218.069 15.000,217.996 15.000 C 217.923 15.000,217.812 15.300,217.750 15.667 C 217.688 16.033,217.569 16.333,217.485 16.333 C 217.402 16.333,217.333 16.521,217.333 16.750 C 217.333 16.979,217.259 17.167,217.169 17.167 C 217.078 17.167,216.956 17.467,216.897 17.833 C 216.839 18.200,216.732 18.500,216.661 18.500 C 216.590 18.500,216.480 18.875,216.417 19.333 C 216.354 19.792,216.234 20.167,216.151 20.167 C 216.068 20.167,216.000 20.279,216.000 20.417 C 216.000 20.554,215.934 20.667,215.852 20.667 C 215.771 20.667,215.654 21.004,215.592 21.417 C 215.530 21.829,215.416 22.167,215.338 22.167 C 215.260 22.167,215.145 22.467,215.083 22.833 C 215.021 23.200,214.902 23.500,214.819 23.500 C 214.735 23.500,214.667 23.688,214.667 23.917 C 214.667 24.146,214.601 24.333,214.521 24.333 C 214.441 24.333,214.328 24.633,214.269 25.000 C 214.211 25.367,214.096 25.667,214.014 25.667 C 213.932 25.667,213.813 26.042,213.750 26.500 C 213.687 26.958,213.567 27.333,213.484 27.333 C 213.401 27.333,213.333 27.521,213.333 27.750 C 213.333 27.979,213.259 28.167,213.169 28.167 C 213.078 28.167,212.956 28.467,212.897 28.833 C 212.839 29.200,212.732 29.500,212.660 29.500 C 212.588 29.500,212.479 29.800,212.417 30.167 C 212.355 30.533,212.236 30.833,212.152 30.833 C 212.068 30.833,212.000 30.979,212.000 31.157 C 212.000 31.335,211.929 31.524,211.843 31.577 C 211.757 31.631,211.636 32.010,211.574 32.421 C 211.513 32.831,211.397 33.167,211.316 33.167 C 211.236 33.167,211.123 33.467,211.064 33.833 C 211.005 34.200,210.892 34.500,210.812 34.500 C 210.732 34.500,210.667 34.688,210.667 34.917 C 210.667 35.146,210.593 35.333,210.502 35.333 C 210.411 35.333,210.289 35.633,210.231 36.000 C 210.172 36.367,210.065 36.667,209.993 36.667 C 209.921 36.667,209.809 36.985,209.744 37.375 C 209.679 37.765,209.579 38.121,209.521 38.167 C 209.279 38.360,208.999 39.031,208.898 39.659 C 208.839 40.030,208.726 40.333,208.647 40.333 C 208.568 40.333,208.456 40.633,208.397 41.000 C 208.339 41.367,208.225 41.667,208.145 41.667 C 208.065 41.667,208.000 41.854,208.000 42.083 C 208.000 42.313,207.925 42.500,207.833 42.500 C 207.742 42.500,207.667 42.720,207.667 42.988 C 207.667 43.257,207.563 43.580,207.437 43.706 C 207.310 43.833,207.154 44.250,207.089 44.635 C 207.024 45.019,206.902 45.333,206.819 45.333 C 206.735 45.333,206.667 45.483,206.667 45.667 C 206.667 45.850,206.598 46.000,206.515 46.000 C 206.431 46.000,206.309 46.319,206.244 46.708 C 206.179 47.098,206.071 47.454,206.004 47.500 C 205.936 47.546,205.829 47.867,205.766 48.213 L 205.650 48.842 208.273 48.796 L 210.896 48.750 211.034 48.167 C 211.110 47.846,211.244 47.455,211.333 47.299 C 211.421 47.143,211.542 46.711,211.602 46.341 C 211.661 45.970,211.775 45.667,211.855 45.667 C 211.935 45.667,212.000 45.485,212.000 45.264 C 212.000 45.042,212.076 44.836,212.169 44.805 C 212.263 44.774,212.371 44.493,212.411 44.181 C 212.450 43.869,212.552 43.570,212.637 43.515 C 212.723 43.461,212.846 43.098,212.911 42.708 C 212.976 42.319,213.098 42.000,213.181 42.000 C 213.265 42.000,213.336 41.831,213.339 41.625 C 213.353 40.633,213.071 40.667,221.393 40.667 C 228.044 40.667,229.000 40.698,229.000 40.917 C 229.000 41.054,229.075 41.167,229.167 41.167 C 229.258 41.167,229.333 41.354,229.333 41.583 C 229.333 41.813,229.406 42.000,229.495 42.000 C 229.584 42.000,229.616 42.105,229.567 42.233 C 229.518 42.361,229.557 42.516,229.655 42.576 C 229.753 42.637,229.833 42.869,229.833 43.093 C 229.833 43.317,229.899 43.500,229.979 43.500 C 230.059 43.500,230.172 43.800,230.231 44.167 C 230.289 44.533,230.411 44.833,230.502 44.833 C 230.593 44.833,230.667 45.021,230.667 45.250 C 230.667 45.479,230.750 45.667,230.851 45.667 C 230.953 45.667,230.991 45.782,230.937 45.923 C 230.843 46.170,230.883 46.301,231.304 47.118 C 231.408 47.320,231.542 47.789,231.602 48.159 L 231.709 48.833 234.355 48.833 C 236.595 48.833,237.000 48.795,237.000 48.583 C 237.000 48.446,236.935 48.333,236.856 48.333 C 236.777 48.333,236.749 48.146,236.793 47.917 C 236.839 47.673,236.795 47.500,236.686 47.500 C 236.584 47.500,236.500 47.313,236.500 47.083 C 236.500 46.854,236.425 46.667,236.333 46.667 C 236.242 46.667,236.167 46.521,236.167 46.343 C 236.167 46.165,236.095 45.975,236.007 45.921 C 235.920 45.867,235.890 45.713,235.942 45.578 C 235.993 45.443,235.957 45.333,235.861 45.333 C 235.766 45.333,235.636 44.996,235.575 44.583 C 235.513 44.171,235.396 43.833,235.314 43.833 C 235.233 43.833,235.167 43.646,235.167 43.417 C 235.167 43.188,235.093 43.000,235.002 43.000 C 234.911 43.000,234.789 42.700,234.731 42.333 C 234.672 41.967,234.568 41.667,234.500 41.667 C 234.432 41.667,234.328 41.367,234.269 41.000 C 234.211 40.633,234.089 40.333,233.998 40.333 C 233.907 40.333,233.833 40.146,233.833 39.917 C 233.833 39.688,233.767 39.500,233.686 39.500 C 233.604 39.500,233.487 39.162,233.425 38.750 C 233.364 38.337,233.243 38.000,233.158 38.000 C 233.073 38.000,232.956 37.700,232.897 37.333 C 232.839 36.967,232.725 36.667,232.645 36.667 C 232.565 36.667,232.500 36.479,232.500 36.250 C 232.500 36.021,232.435 35.833,232.355 35.833 C 232.275 35.833,232.161 35.533,232.103 35.167 C 232.044 34.800,231.932 34.500,231.853 34.500 C 231.774 34.500,231.661 34.197,231.602 33.826 C 231.501 33.197,231.221 32.526,230.979 32.333 C 230.921 32.287,230.821 31.931,230.756 31.542 C 230.691 31.152,230.579 30.833,230.507 30.833 C 230.435 30.833,230.328 30.533,230.269 30.167 C 230.211 29.800,230.089 29.500,229.998 29.500 C 229.907 29.500,229.833 29.319,229.833 29.097 C 229.833 28.876,229.754 28.668,229.657 28.636 C 229.560 28.603,229.442 28.241,229.396 27.830 C 229.349 27.419,229.241 27.058,229.155 27.028 C 229.070 26.997,228.953 26.683,228.897 26.330 C 228.840 25.976,228.692 25.648,228.566 25.600 C 228.434 25.549,228.383 25.398,228.444 25.239 C 228.502 25.088,228.448 24.904,228.323 24.827 C 228.199 24.751,228.070 24.440,228.035 24.137 C 228.001 23.834,227.907 23.546,227.827 23.496 C 227.748 23.447,227.632 23.090,227.570 22.703 C 227.508 22.317,227.392 22.000,227.312 22.000 C 227.232 22.000,227.167 21.887,227.167 21.750 C 227.167 21.613,227.100 21.500,227.019 21.500 C 226.938 21.500,226.818 21.144,226.753 20.708 C 226.687 20.273,226.556 19.868,226.460 19.809 C 226.365 19.750,226.267 19.452,226.243 19.148 C 226.219 18.843,226.117 18.567,226.017 18.533 C 225.916 18.500,225.833 18.291,225.833 18.069 C 225.833 17.848,225.765 17.667,225.681 17.667 C 225.598 17.667,225.479 17.367,225.417 17.000 C 225.355 16.633,225.244 16.333,225.171 16.333 C 225.098 16.333,224.987 15.996,224.925 15.583 C 224.864 15.171,224.752 14.833,224.678 14.833 C 224.603 14.833,224.495 14.533,224.436 14.167 C 224.377 13.800,224.255 13.500,224.165 13.500 C 224.074 13.500,224.000 13.313,224.000 13.083 C 224.000 12.854,223.935 12.667,223.855 12.667 C 223.775 12.667,223.661 12.367,223.603 12.000 L 223.496 11.333 221.331 11.333 L 219.167 11.333 219.167 11.821 M241.583 30.083 L 241.583 48.833 243.958 48.833 L 246.333 48.833 246.333 34.750 C 246.333 21.832,246.386 20.026,246.738 20.958 C 246.947 21.512,247.246 22.000,247.377 22.000 C 247.449 22.000,247.581 22.169,247.670 22.375 C 247.899 22.904,248.206 23.370,248.518 23.664 C 248.665 23.803,248.839 24.085,248.904 24.292 C 248.969 24.498,249.092 24.667,249.178 24.667 C 249.263 24.667,249.333 24.779,249.333 24.917 C 249.333 25.054,249.407 25.167,249.497 25.167 C 249.587 25.167,249.707 25.354,249.765 25.583 C 249.822 25.813,249.932 26.000,250.009 26.000 C 250.149 26.000,250.567 26.667,250.765 27.208 C 250.824 27.369,250.938 27.500,251.019 27.500 C 251.100 27.500,251.167 27.613,251.167 27.750 C 251.167 27.887,251.263 28.000,251.381 28.000 C 251.499 28.000,251.608 28.162,251.623 28.360 C 251.638 28.558,251.716 28.764,251.796 28.818 C 251.876 28.872,252.084 29.160,252.257 29.458 C 252.430 29.756,252.631 30.000,252.703 30.000 C 252.775 30.000,252.833 30.115,252.833 30.255 C 252.833 30.396,252.946 30.554,253.083 30.606 C 253.221 30.659,253.333 30.847,253.333 31.023 C 253.333 31.199,253.446 31.387,253.583 31.440 C 253.721 31.492,253.833 31.640,253.833 31.768 C 253.833 31.896,253.907 32.000,253.997 32.000 C 254.087 32.000,254.207 32.188,254.265 32.417 C 254.322 32.646,254.419 32.833,254.480 32.833 C 254.541 32.833,254.732 33.096,254.905 33.417 C 255.078 33.737,255.282 34.000,255.360 34.000 C 255.437 34.000,255.500 34.115,255.500 34.255 C 255.500 34.396,255.612 34.554,255.750 34.606 C 255.887 34.659,256.000 34.847,256.000 35.023 C 256.000 35.199,256.112 35.387,256.250 35.440 C 256.387 35.492,256.500 35.640,256.500 35.768 C 256.500 35.896,256.574 36.000,256.663 36.000 C 256.753 36.000,256.874 36.188,256.932 36.417 C 256.989 36.646,257.098 36.833,257.174 36.833 C 257.249 36.833,257.364 37.002,257.429 37.208 C 257.494 37.415,257.673 37.696,257.827 37.833 C 257.981 37.971,258.155 38.215,258.215 38.375 C 258.274 38.535,258.400 38.667,258.495 38.667 C 258.589 38.667,258.667 38.819,258.667 39.005 C 258.667 39.191,258.779 39.387,258.917 39.440 C 259.054 39.492,259.167 39.640,259.167 39.768 C 259.167 39.896,259.240 40.000,259.330 40.000 C 259.420 40.000,259.541 40.188,259.598 40.417 C 259.656 40.646,259.765 40.833,259.840 40.833 C 259.916 40.833,260.031 41.002,260.096 41.208 C 260.161 41.415,260.354 41.705,260.524 41.853 C 260.694 42.001,260.833 42.210,260.833 42.316 C 260.833 42.423,260.946 42.554,261.083 42.606 C 261.221 42.659,261.333 42.847,261.333 43.023 C 261.333 43.199,261.446 43.387,261.583 43.440 C 261.721 43.492,261.833 43.640,261.833 43.768 C 261.833 43.896,261.930 44.000,262.048 44.000 C 262.166 44.000,262.274 44.151,262.288 44.335 C 262.302 44.519,262.430 44.787,262.573 44.930 C 262.716 45.073,262.833 45.298,262.833 45.429 C 262.833 45.560,262.908 45.667,263.000 45.667 C 263.092 45.667,263.167 45.779,263.167 45.917 C 263.167 46.054,263.237 46.167,263.322 46.167 C 263.408 46.167,263.529 46.330,263.592 46.529 C 263.714 46.911,263.857 47.118,264.445 47.761 C 264.645 47.978,264.856 48.308,264.915 48.495 C 265.016 48.813,265.157 48.833,267.261 48.833 L 269.500 48.833 269.500 30.083 L 269.500 11.333 267.167 11.333 L 264.833 11.333 264.822 25.375 C 264.814 35.597,264.762 39.315,264.630 39.042 C 264.530 38.835,264.386 38.667,264.308 38.667 C 264.230 38.667,264.167 38.552,264.167 38.411 C 264.167 38.271,264.061 38.116,263.932 38.066 C 263.802 38.016,263.651 37.794,263.595 37.571 C 263.539 37.349,263.420 37.167,263.330 37.167 C 263.240 37.167,263.167 37.054,263.167 36.917 C 263.167 36.779,263.093 36.667,263.003 36.667 C 262.913 36.667,262.793 36.479,262.735 36.250 C 262.678 36.021,262.575 35.833,262.508 35.833 C 262.441 35.833,262.247 35.575,262.077 35.260 C 261.907 34.945,261.708 34.724,261.634 34.770 C 261.560 34.816,261.500 34.696,261.500 34.505 C 261.500 34.313,261.394 34.116,261.265 34.066 C 261.136 34.016,260.984 33.794,260.929 33.571 C 260.873 33.349,260.753 33.167,260.663 33.167 C 260.574 33.167,260.500 33.054,260.500 32.917 C 260.500 32.779,260.430 32.667,260.345 32.667 C 260.259 32.667,260.137 32.504,260.074 32.304 C 259.952 31.920,259.809 31.714,259.208 31.060 C 259.002 30.835,258.833 30.540,258.833 30.404 C 258.833 30.268,258.728 30.116,258.598 30.066 C 258.469 30.016,258.318 29.794,258.262 29.571 C 258.206 29.349,258.087 29.167,257.997 29.167 C 257.907 29.167,257.833 29.054,257.833 28.917 C 257.833 28.779,257.763 28.667,257.678 28.667 C 257.592 28.667,257.471 28.504,257.408 28.304 C 257.285 27.920,257.142 27.714,256.542 27.060 C 256.335 26.835,256.167 26.540,256.167 26.404 C 256.167 26.268,256.061 26.116,255.932 26.066 C 255.802 26.016,255.651 25.794,255.595 25.571 C 255.539 25.349,255.420 25.167,255.330 25.167 C 255.240 25.167,255.167 25.054,255.167 24.917 C 255.167 24.779,255.097 24.667,255.011 24.667 C 254.926 24.667,254.803 24.501,254.739 24.299 C 254.675 24.097,254.520 23.830,254.395 23.704 C 254.269 23.579,254.167 23.369,254.167 23.238 C 254.167 23.023,253.964 22.927,253.625 22.980 C 253.556 22.991,253.500 22.810,253.500 22.578 C 253.500 22.346,253.394 22.116,253.265 22.066 C 253.136 22.016,252.984 21.794,252.929 21.571 C 252.873 21.349,252.753 21.167,252.663 21.167 C 252.574 21.167,252.500 21.054,252.500 20.917 C 252.500 20.779,252.426 20.667,252.337 20.667 C 252.247 20.667,252.127 20.485,252.071 20.262 C 252.016 20.040,251.864 19.817,251.735 19.767 C 251.606 19.718,251.500 19.530,251.500 19.350 C 251.500 19.169,251.351 18.975,251.167 18.917 C 250.982 18.858,250.833 18.664,250.833 18.484 C 250.833 18.304,250.728 18.116,250.598 18.066 C 250.469 18.016,250.318 17.794,250.262 17.571 C 250.206 17.349,250.087 17.167,249.997 17.167 C 249.907 17.167,249.833 17.054,249.833 16.917 C 249.833 16.779,249.760 16.667,249.670 16.667 C 249.580 16.667,249.459 16.479,249.402 16.250 C 249.344 16.021,249.228 15.833,249.144 15.833 C 249.060 15.833,248.920 15.644,248.832 15.412 C 248.744 15.181,248.558 14.948,248.419 14.895 C 248.280 14.841,248.167 14.666,248.167 14.505 C 248.167 14.343,248.017 14.021,247.833 13.788 C 247.650 13.555,247.500 13.310,247.500 13.243 C 247.500 13.177,247.361 13.001,247.191 12.853 C 247.020 12.705,246.828 12.415,246.763 12.208 C 246.697 12.002,246.539 11.833,246.411 11.833 C 246.272 11.833,246.216 11.732,246.273 11.583 C 246.356 11.368,246.035 11.333,243.976 11.333 L 241.583 11.333 241.583 30.083 M279.167 30.083 L 279.167 48.833 287.125 48.770 C 296.245 48.698,295.785 48.713,295.918 48.497 C 295.974 48.407,296.240 48.333,296.510 48.333 C 296.779 48.333,297.000 48.258,297.000 48.167 C 297.000 48.075,297.188 48.000,297.417 48.000 C 297.646 48.000,297.833 47.927,297.833 47.839 C 297.833 47.750,297.946 47.720,298.083 47.773 C 298.221 47.826,298.333 47.792,298.333 47.698 C 298.333 47.604,298.558 47.477,298.833 47.417 C 299.108 47.356,299.333 47.238,299.333 47.153 C 299.333 47.069,299.483 47.000,299.667 47.000 C 299.850 47.000,300.000 46.923,300.000 46.828 C 300.000 46.734,300.128 46.607,300.284 46.547 C 300.720 46.380,301.160 45.957,301.062 45.799 C 301.014 45.722,301.037 45.679,301.113 45.704 C 301.309 45.769,302.833 44.300,302.833 44.046 C 302.833 43.929,302.907 43.833,302.997 43.833 C 303.087 43.833,303.207 43.646,303.265 43.417 C 303.322 43.188,303.436 43.000,303.518 43.000 C 303.600 43.000,303.667 42.887,303.667 42.750 C 303.667 42.612,303.741 42.500,303.831 42.500 C 303.922 42.500,304.044 42.200,304.103 41.833 C 304.161 41.467,304.269 41.167,304.343 41.167 C 304.416 41.167,304.528 40.754,304.591 40.250 C 304.654 39.746,304.771 39.333,304.853 39.333 C 304.934 39.333,305.000 38.965,305.000 38.514 C 305.000 38.006,305.079 37.668,305.208 37.625 C 305.371 37.571,305.417 35.913,305.417 30.083 C 305.417 24.254,305.371 22.596,305.208 22.542 C 305.079 22.499,305.000 22.160,305.000 21.653 C 305.000 21.202,304.934 20.833,304.853 20.833 C 304.771 20.833,304.654 20.421,304.591 19.917 C 304.528 19.412,304.416 19.000,304.343 19.000 C 304.269 19.000,304.161 18.700,304.103 18.333 C 304.044 17.967,303.922 17.667,303.831 17.667 C 303.741 17.667,303.667 17.554,303.667 17.417 C 303.667 17.279,303.600 17.167,303.518 17.167 C 303.436 17.167,303.322 16.979,303.265 16.750 C 303.207 16.521,303.087 16.333,302.997 16.333 C 302.907 16.333,302.832 16.240,302.831 16.125 C 302.829 15.873,300.702 13.775,300.292 13.620 C 300.131 13.560,300.000 13.433,300.000 13.339 C 300.000 13.244,299.850 13.167,299.667 13.167 C 299.483 13.167,299.333 13.092,299.333 13.000 C 299.333 12.908,299.277 12.841,299.208 12.851 C 298.942 12.890,298.333 12.619,298.333 12.463 C 298.333 12.372,298.221 12.341,298.083 12.394 C 297.946 12.446,297.833 12.417,297.833 12.328 C 297.833 12.239,297.646 12.167,297.417 12.167 C 297.188 12.167,297.000 12.100,297.000 12.018 C 297.000 11.870,296.233 11.691,295.205 11.599 C 294.906 11.572,294.612 11.501,294.553 11.442 C 294.493 11.382,291.007 11.333,286.806 11.333 L 279.167 11.333 279.167 30.083 M313.500 30.083 L 313.500 48.833 325.250 48.833 L 337.000 48.833 337.000 46.750 L 337.000 44.667 327.667 44.667 L 318.333 44.667 318.333 28.000 L 318.333 11.333 315.917 11.333 L 313.500 11.333 313.500 30.083 M342.833 30.083 L 342.833 48.833 354.583 48.833 L 366.333 48.833 366.333 46.750 L 366.333 44.667 357.000 44.667 L 347.667 44.667 347.667 38.333 L 347.667 32.000 355.667 32.000 L 363.667 32.000 363.667 29.917 L 363.667 27.833 355.667 27.833 L 347.667 27.833 347.667 21.667 L 347.667 15.500 357.000 15.500 L 366.333 15.500 366.333 13.417 L 366.333 11.333 354.583 11.333 L 342.833 11.333 342.833 30.083 M373.500 30.083 L 373.500 48.833 375.917 48.833 L 378.333 48.833 378.333 40.750 L 378.333 32.667 382.349 32.667 C 386.224 32.667,386.368 32.678,386.452 33.000 C 386.500 33.183,386.605 33.333,386.686 33.333 C 386.767 33.333,386.833 33.440,386.833 33.570 C 386.833 33.818,387.337 34.856,387.528 35.002 C 387.590 35.048,387.692 35.292,387.755 35.543 C 387.818 35.795,387.936 36.000,388.018 36.000 C 388.100 36.000,388.167 36.150,388.167 36.333 C 388.167 36.517,388.242 36.667,388.333 36.667 C 388.425 36.667,388.492 36.723,388.482 36.792 C 388.447 37.032,388.707 37.667,388.840 37.667 C 388.913 37.667,389.023 37.892,389.083 38.167 C 389.145 38.447,389.301 38.667,389.440 38.667 C 389.575 38.667,389.645 38.734,389.594 38.816 C 389.543 38.898,389.613 39.179,389.750 39.441 C 389.886 39.703,389.998 40.010,389.999 40.125 C 390.000 40.240,390.069 40.333,390.153 40.333 C 390.238 40.333,390.356 40.558,390.417 40.833 C 390.477 41.108,390.594 41.333,390.677 41.333 C 390.759 41.333,390.874 41.521,390.932 41.750 C 390.989 41.979,391.103 42.167,391.185 42.167 C 391.266 42.167,391.333 42.279,391.333 42.417 C 391.333 42.554,391.400 42.667,391.481 42.667 C 391.563 42.667,391.677 42.922,391.736 43.234 C 391.795 43.546,391.958 43.845,392.098 43.899 C 392.239 43.953,392.308 44.073,392.251 44.165 C 392.194 44.258,392.234 44.333,392.341 44.333 C 392.448 44.333,392.492 44.446,392.440 44.583 C 392.387 44.721,392.416 44.833,392.505 44.833 C 392.594 44.833,392.667 44.946,392.667 45.083 C 392.667 45.221,392.733 45.333,392.815 45.333 C 392.896 45.333,393.012 45.596,393.072 45.917 C 393.133 46.237,393.253 46.500,393.341 46.500 C 393.428 46.500,393.500 46.612,393.500 46.750 C 393.500 46.887,393.583 47.000,393.684 47.000 C 393.786 47.000,393.826 47.112,393.773 47.250 C 393.720 47.387,393.750 47.500,393.839 47.500 C 393.927 47.500,394.000 47.612,394.000 47.750 C 394.000 47.887,394.070 48.000,394.155 48.000 C 394.240 48.000,394.334 48.169,394.363 48.375 C 394.416 48.743,400.000 49.097,400.000 48.732 C 400.000 48.412,399.594 47.333,399.474 47.333 C 399.396 47.333,399.333 47.183,399.333 47.000 C 399.333 46.817,399.264 46.667,399.180 46.667 C 399.096 46.667,398.977 46.442,398.917 46.167 C 398.856 45.892,398.744 45.667,398.667 45.667 C 398.590 45.667,398.477 45.442,398.417 45.167 C 398.356 44.892,398.255 44.667,398.193 44.667 C 398.069 44.667,397.500 43.435,397.500 43.166 C 397.500 43.074,397.426 43.000,397.337 43.000 C 397.247 43.000,397.126 42.813,397.068 42.583 C 397.011 42.354,396.897 42.167,396.815 42.167 C 396.734 42.167,396.667 42.054,396.667 41.917 C 396.667 41.779,396.598 41.667,396.513 41.667 C 396.429 41.667,396.310 41.442,396.250 41.167 C 396.190 40.892,396.071 40.667,395.987 40.667 C 395.902 40.667,395.833 40.547,395.833 40.401 C 395.833 40.135,395.350 39.159,395.138 38.998 C 395.077 38.952,394.975 38.708,394.912 38.457 C 394.849 38.205,394.730 38.000,394.649 38.000 C 394.567 38.000,394.500 37.883,394.500 37.740 C 394.500 37.597,394.426 37.526,394.335 37.582 C 394.241 37.641,394.213 37.574,394.270 37.425 C 394.324 37.283,394.286 37.167,394.184 37.167 C 394.083 37.167,394.000 37.050,394.000 36.907 C 394.000 36.764,393.932 36.689,393.848 36.741 C 393.765 36.793,393.645 36.534,393.583 36.167 C 393.521 35.800,393.408 35.500,393.332 35.500 C 393.256 35.500,393.144 35.275,393.083 35.000 C 393.023 34.725,392.904 34.500,392.820 34.500 C 392.736 34.500,392.667 34.387,392.667 34.250 C 392.667 34.112,392.598 34.000,392.513 34.000 C 392.429 34.000,392.307 33.756,392.242 33.458 C 392.178 33.160,392.061 32.876,391.983 32.826 C 391.541 32.543,391.761 31.946,392.332 31.876 C 392.652 31.837,392.953 31.743,393.000 31.666 C 393.048 31.589,393.311 31.473,393.585 31.407 C 394.187 31.263,394.529 31.015,394.405 30.814 C 394.355 30.733,394.463 30.667,394.645 30.667 C 394.827 30.667,395.089 30.554,395.226 30.417 C 395.364 30.279,395.551 30.167,395.642 30.167 C 395.892 30.167,397.167 28.853,397.167 28.595 C 397.167 28.471,397.279 28.326,397.417 28.273 C 397.554 28.220,397.667 28.025,397.667 27.839 C 397.667 27.652,397.742 27.500,397.833 27.500 C 397.925 27.500,398.000 27.387,398.000 27.250 C 398.000 27.113,398.075 27.000,398.167 27.000 C 398.258 27.000,398.334 26.906,398.334 26.792 C 398.335 26.677,398.446 26.371,398.581 26.112 C 398.716 25.853,398.876 25.066,398.936 24.362 C 398.996 23.659,399.110 23.058,399.189 23.028 C 399.376 22.956,399.378 20.833,399.191 20.833 C 399.113 20.833,399.002 20.220,398.944 19.470 C 398.886 18.720,398.773 18.064,398.692 18.012 C 398.611 17.959,398.493 17.729,398.429 17.500 C 398.269 16.929,397.958 16.294,397.708 16.030 C 397.594 15.909,397.500 15.737,397.500 15.648 C 397.500 15.395,395.567 13.500,395.310 13.500 C 395.183 13.500,394.985 13.347,394.868 13.160 C 394.751 12.973,394.583 12.865,394.495 12.920 C 394.406 12.975,394.333 12.940,394.333 12.843 C 394.333 12.746,394.183 12.667,394.000 12.667 C 393.817 12.667,393.667 12.593,393.667 12.502 C 393.667 12.411,393.367 12.289,393.000 12.231 C 392.633 12.172,392.333 12.074,392.333 12.013 C 392.333 11.817,390.832 11.494,390.409 11.600 C 390.159 11.663,390.000 11.631,390.000 11.518 C 390.000 11.385,387.677 11.333,381.750 11.333 L 373.500 11.333 373.500 30.083 M7.625 11.617 L 0.000 11.670 0.000 30.171 L 0.000 48.673 3.792 48.628 L 7.583 48.583 7.627 41.792 L 7.670 35.000 11.252 35.000 C 13.222 35.000,14.833 34.936,14.833 34.857 C 14.833 34.779,15.630 34.674,16.605 34.624 C 17.579 34.574,18.423 34.463,18.480 34.376 C 18.537 34.290,18.845 34.168,19.165 34.106 C 19.883 33.966,20.667 33.628,20.667 33.459 C 20.667 33.390,20.774 33.333,20.905 33.333 C 21.036 33.333,21.245 33.240,21.370 33.125 C 21.627 32.890,22.138 32.551,22.478 32.390 C 22.815 32.231,24.167 30.888,24.167 30.712 C 24.167 30.628,24.392 30.308,24.667 30.000 C 24.942 29.692,25.167 29.303,25.167 29.137 C 25.167 28.970,25.236 28.833,25.320 28.833 C 25.404 28.833,25.523 28.608,25.583 28.333 C 25.644 28.058,25.757 27.833,25.835 27.833 C 25.912 27.833,26.028 27.421,26.091 26.917 C 26.154 26.412,26.265 26.000,26.339 26.000 C 26.412 26.000,26.481 24.725,26.492 23.167 C 26.503 21.541,26.446 20.333,26.358 20.333 C 26.274 20.333,26.154 19.921,26.091 19.417 C 26.028 18.912,25.912 18.500,25.835 18.500 C 25.757 18.500,25.644 18.275,25.583 18.000 C 25.523 17.725,25.404 17.500,25.320 17.500 C 25.236 17.500,25.167 17.348,25.167 17.161 C 25.167 16.975,25.054 16.780,24.917 16.727 C 24.779 16.674,24.667 16.559,24.667 16.470 C 24.667 16.382,24.573 16.205,24.458 16.077 C 24.017 15.585,23.833 15.344,23.833 15.257 C 23.833 15.099,23.174 14.500,23.000 14.500 C 22.908 14.500,22.833 14.413,22.833 14.306 C 22.833 14.199,22.786 14.159,22.728 14.217 C 22.670 14.275,22.477 14.137,22.299 13.911 C 22.121 13.685,21.869 13.500,21.738 13.500 C 21.607 13.500,21.500 13.425,21.500 13.333 C 21.500 13.242,21.350 13.167,21.167 13.167 C 20.983 13.167,20.833 13.092,20.833 13.000 C 20.833 12.908,20.777 12.845,20.708 12.860 C 20.523 12.899,19.932 12.631,19.812 12.452 C 19.755 12.367,19.363 12.258,18.941 12.211 C 18.519 12.163,18.209 12.066,18.252 11.996 C 18.337 11.859,17.437 11.701,16.083 11.616 C 15.625 11.587,11.819 11.587,7.625 11.617 M32.667 30.125 L 32.667 48.667 36.417 48.667 L 40.168 48.667 40.126 30.160 L 40.083 11.654 36.375 11.618 L 32.667 11.583 32.667 30.125 M49.500 30.130 L 49.500 48.677 53.333 48.660 L 57.167 48.644 57.167 41.822 L 57.167 35.000 60.750 35.000 C 62.721 35.000,64.333 34.936,64.333 34.857 C 64.333 34.779,65.122 34.674,66.086 34.625 C 67.051 34.576,67.936 34.456,68.053 34.358 C 68.170 34.261,68.582 34.131,68.967 34.069 C 69.352 34.008,69.667 33.892,69.667 33.812 C 69.667 33.732,69.779 33.667,69.917 33.667 C 70.054 33.667,70.167 33.601,70.167 33.521 C 70.167 33.441,70.373 33.332,70.625 33.279 C 70.877 33.227,71.286 32.992,71.534 32.759 C 71.782 32.525,72.033 32.333,72.091 32.333 C 72.272 32.333,73.937 30.598,74.049 30.292 C 74.108 30.131,74.225 30.000,74.309 30.000 C 74.393 30.000,74.506 29.869,74.562 29.708 C 74.617 29.548,74.809 29.178,74.988 28.886 C 75.167 28.594,75.367 28.069,75.431 27.720 C 75.495 27.370,75.612 27.042,75.690 26.991 C 75.767 26.940,75.879 26.340,75.939 25.658 C 75.998 24.975,76.111 24.392,76.190 24.361 C 76.377 24.289,76.378 22.000,76.191 22.000 C 76.112 22.000,76.005 21.426,75.952 20.725 C 75.899 20.024,75.786 19.405,75.702 19.350 C 75.617 19.295,75.496 18.969,75.433 18.625 C 75.370 18.281,75.255 18.000,75.179 18.000 C 75.041 18.000,74.780 17.370,74.815 17.125 C 74.825 17.056,74.758 17.000,74.667 17.000 C 74.575 17.000,74.500 16.884,74.500 16.742 C 74.500 16.600,74.313 16.310,74.083 16.098 C 73.854 15.886,73.667 15.660,73.667 15.598 C 73.667 15.419,72.569 14.333,72.388 14.333 C 72.299 14.333,72.064 14.146,71.864 13.917 C 71.665 13.688,71.389 13.500,71.251 13.500 C 71.113 13.500,71.000 13.425,71.000 13.333 C 71.000 13.242,70.887 13.167,70.750 13.167 C 70.612 13.167,70.500 13.087,70.500 12.990 C 70.500 12.893,70.425 12.860,70.333 12.917 C 70.242 12.973,70.167 12.940,70.167 12.843 C 70.167 12.746,69.979 12.667,69.750 12.667 C 69.521 12.667,69.333 12.593,69.333 12.502 C 69.333 12.411,69.033 12.289,68.667 12.231 C 68.300 12.172,68.000 12.054,68.000 11.968 C 68.000 11.883,67.869 11.829,67.708 11.850 C 67.548 11.871,67.129 11.828,66.777 11.756 C 66.425 11.683,62.394 11.615,57.819 11.604 L 49.500 11.583 49.500 30.130 M82.236 11.653 C 82.198 11.691,82.167 20.035,82.167 30.194 L 82.167 48.667 94.417 48.667 L 106.667 48.667 106.667 45.167 L 106.667 41.667 98.333 41.667 L 90.000 41.667 90.000 37.500 L 90.000 33.333 97.167 33.333 L 104.333 33.333 104.333 29.917 L 104.333 26.500 97.167 26.500 L 90.000 26.500 90.000 22.500 L 90.000 18.500 98.333 18.500 L 106.667 18.500 106.667 15.042 L 106.667 11.583 94.486 11.583 C 87.787 11.583,82.274 11.615,82.236 11.653 M114.500 30.128 L 114.500 48.673 118.292 48.628 L 122.083 48.583 122.127 41.292 L 122.170 34.000 124.377 34.003 C 125.590 34.004,126.662 34.060,126.759 34.128 C 126.960 34.268,127.500 35.377,127.500 35.650 C 127.500 35.751,127.567 35.833,127.649 35.833 C 127.730 35.833,127.845 36.022,127.902 36.253 C 127.960 36.483,128.136 36.822,128.294 37.006 C 128.451 37.190,128.588 37.432,128.599 37.545 C 128.639 37.960,128.876 38.500,129.019 38.500 C 129.100 38.500,129.167 38.650,129.167 38.834 C 129.167 39.177,130.156 41.208,130.370 41.304 C 130.436 41.333,130.538 41.615,130.597 41.929 C 130.656 42.243,130.770 42.500,130.852 42.500 C 130.933 42.500,131.000 42.612,131.000 42.750 C 131.000 42.887,131.075 43.000,131.167 43.000 C 131.258 43.000,131.325 43.056,131.315 43.125 C 131.279 43.377,131.543 44.000,131.686 44.000 C 131.767 44.000,131.833 44.154,131.833 44.343 C 131.833 44.532,131.901 44.644,131.984 44.593 C 132.068 44.542,132.096 44.650,132.048 44.833 C 132.000 45.020,132.043 45.167,132.147 45.167 C 132.250 45.167,132.333 45.279,132.333 45.417 C 132.333 45.554,132.408 45.667,132.500 45.667 C 132.592 45.667,132.659 45.723,132.649 45.792 C 132.615 46.027,132.872 46.667,133.001 46.667 C 133.072 46.667,133.179 46.929,133.239 47.250 C 133.299 47.571,133.420 47.833,133.508 47.833 C 133.595 47.833,133.667 47.914,133.667 48.012 C 133.667 48.613,134.056 48.667,138.427 48.667 L 142.710 48.667 142.609 48.043 C 142.553 47.700,142.431 47.394,142.337 47.362 C 142.243 47.331,142.167 47.162,142.167 46.986 C 142.167 46.810,142.098 46.667,142.013 46.667 C 141.929 46.667,141.810 46.442,141.750 46.167 C 141.690 45.892,141.579 45.667,141.505 45.667 C 141.430 45.667,141.319 45.465,141.257 45.218 C 141.195 44.972,141.004 44.648,140.833 44.500 C 140.662 44.352,140.472 44.028,140.410 43.782 C 140.348 43.535,140.239 43.333,140.167 43.333 C 140.096 43.333,139.988 43.071,139.928 42.750 C 139.867 42.429,139.747 42.167,139.659 42.167 C 139.572 42.167,139.500 42.054,139.500 41.917 C 139.500 41.779,139.431 41.667,139.347 41.667 C 139.262 41.667,139.144 41.442,139.083 41.167 C 139.023 40.892,138.913 40.667,138.839 40.667 C 138.764 40.667,138.655 40.404,138.594 40.083 C 138.534 39.763,138.413 39.500,138.326 39.500 C 138.238 39.500,138.167 39.387,138.167 39.250 C 138.167 39.112,138.098 39.000,138.013 39.000 C 137.929 39.000,137.810 38.775,137.750 38.500 C 137.690 38.225,137.579 38.000,137.505 38.000 C 137.430 38.000,137.322 37.813,137.265 37.583 C 137.207 37.354,137.087 37.167,136.997 37.167 C 136.907 37.167,136.833 37.054,136.833 36.917 C 136.833 36.779,136.762 36.667,136.674 36.667 C 136.587 36.667,136.466 36.404,136.406 36.083 C 136.345 35.762,136.236 35.500,136.161 35.500 C 136.087 35.500,135.977 35.275,135.917 35.000 C 135.856 34.725,135.738 34.500,135.653 34.500 C 135.569 34.500,135.500 34.394,135.500 34.264 C 135.500 34.134,135.431 34.003,135.347 33.972 C 135.042 33.861,134.936 32.667,135.231 32.667 C 135.379 32.667,135.500 32.592,135.500 32.500 C 135.500 32.408,135.612 32.333,135.750 32.333 C 135.887 32.333,136.000 32.258,136.000 32.167 C 136.000 32.075,136.107 32.000,136.238 32.000 C 136.369 32.000,136.579 31.897,136.704 31.772 C 136.830 31.647,137.097 31.492,137.299 31.427 C 137.501 31.363,137.667 31.206,137.667 31.078 C 137.667 30.950,137.829 30.758,138.027 30.652 C 138.485 30.407,139.498 29.311,139.499 29.059 C 139.500 28.955,139.612 28.826,139.750 28.773 C 139.887 28.720,140.000 28.525,140.000 28.339 C 140.000 28.152,140.072 28.000,140.159 28.000 C 140.247 28.000,140.368 27.737,140.428 27.415 C 140.488 27.093,140.604 26.789,140.686 26.738 C 140.767 26.688,140.833 26.433,140.833 26.171 C 140.833 25.909,140.922 25.665,141.029 25.629 C 141.303 25.538,141.298 20.294,141.024 20.203 C 140.919 20.168,140.833 19.883,140.833 19.569 C 140.833 19.256,140.759 19.000,140.669 19.000 C 140.578 19.000,140.456 18.700,140.397 18.333 C 140.339 17.967,140.231 17.667,140.159 17.667 C 140.086 17.667,139.981 17.458,139.924 17.202 C 139.868 16.947,139.637 16.599,139.411 16.429 C 139.185 16.259,139.000 16.035,139.000 15.931 C 139.000 15.828,138.812 15.557,138.582 15.330 C 138.352 15.103,137.890 14.635,137.555 14.292 C 137.220 13.948,136.844 13.667,136.718 13.667 C 136.592 13.667,136.446 13.554,136.394 13.417 C 136.341 13.279,136.223 13.167,136.132 13.167 C 135.920 13.167,134.776 12.636,134.667 12.487 C 134.621 12.425,134.265 12.321,133.875 12.256 C 133.485 12.191,133.167 12.079,133.167 12.007 C 133.167 11.728,131.276 11.656,123.042 11.620 L 114.500 11.583 114.500 30.128 M292.000 15.667 C 292.000 15.758,292.414 15.833,292.919 15.833 C 293.424 15.833,293.968 15.904,294.127 15.991 C 294.286 16.078,294.698 16.193,295.042 16.248 C 295.385 16.303,295.667 16.417,295.667 16.500 C 295.667 16.583,295.929 16.701,296.249 16.761 C 296.569 16.821,296.789 16.937,296.739 17.018 C 296.688 17.100,296.765 17.167,296.909 17.167 C 297.241 17.167,298.833 18.754,298.833 19.086 C 298.833 19.222,298.908 19.333,299.000 19.333 C 299.092 19.333,299.167 19.446,299.167 19.583 C 299.167 19.721,299.250 19.833,299.351 19.833 C 299.453 19.833,299.492 19.946,299.440 20.083 C 299.387 20.221,299.416 20.333,299.505 20.333 C 299.594 20.333,299.667 20.446,299.667 20.583 C 299.667 20.721,299.734 20.833,299.816 20.833 C 299.899 20.833,300.020 21.377,300.086 22.042 C 300.153 22.706,300.274 23.293,300.357 23.345 C 300.439 23.398,300.561 25.772,300.628 28.621 C 300.695 31.471,300.694 33.767,300.625 33.724 C 300.556 33.682,300.500 34.364,300.500 35.240 C 300.500 36.116,300.434 36.833,300.353 36.833 C 300.272 36.833,300.153 37.396,300.089 38.083 C 300.024 38.771,299.903 39.333,299.819 39.333 C 299.735 39.333,299.667 39.446,299.667 39.583 C 299.667 39.721,299.594 39.833,299.505 39.833 C 299.416 39.833,299.387 39.946,299.440 40.083 C 299.492 40.221,299.453 40.333,299.351 40.333 C 299.250 40.333,299.167 40.446,299.167 40.583 C 299.167 40.721,299.100 40.833,299.018 40.833 C 298.936 40.833,298.822 41.021,298.765 41.250 C 298.707 41.479,298.582 41.667,298.487 41.667 C 298.392 41.667,298.360 41.742,298.417 41.833 C 298.473 41.925,298.443 42.000,298.349 42.000 C 298.255 42.000,297.948 42.225,297.667 42.500 C 297.385 42.775,297.041 43.000,296.901 43.000 C 296.761 43.000,296.688 43.067,296.739 43.148 C 296.789 43.230,296.569 43.346,296.249 43.406 C 295.929 43.466,295.667 43.583,295.667 43.667 C 295.667 43.750,295.385 43.863,295.042 43.918 C 294.698 43.973,294.286 44.089,294.127 44.176 C 293.968 44.262,293.424 44.333,292.919 44.333 C 292.414 44.333,292.000 44.408,292.000 44.500 C 292.000 44.606,290.556 44.667,288.000 44.667 L 284.000 44.667 284.000 30.083 L 284.000 15.500 288.000 15.500 C 290.556 15.500,292.000 15.560,292.000 15.667 M387.833 15.667 C 387.833 15.758,388.241 15.833,388.740 15.833 C 389.239 15.833,389.693 15.908,389.750 16.000 C 389.807 16.092,389.980 16.169,390.135 16.172 C 390.290 16.175,390.717 16.323,391.083 16.500 C 391.450 16.677,391.807 16.825,391.876 16.828 C 392.082 16.837,393.500 18.336,393.505 18.551 C 393.508 18.661,393.621 18.896,393.755 19.074 C 393.890 19.251,394.000 19.564,394.000 19.768 C 394.000 19.972,394.086 20.168,394.192 20.203 C 394.321 20.246,394.384 20.840,394.384 22.000 C 394.384 23.160,394.321 23.754,394.192 23.797 C 394.086 23.832,394.000 24.042,394.000 24.264 C 394.000 24.485,393.927 24.667,393.839 24.667 C 393.750 24.667,393.720 24.779,393.773 24.917 C 393.826 25.054,393.786 25.167,393.684 25.167 C 393.583 25.167,393.500 25.252,393.500 25.355 C 393.500 25.459,393.250 25.779,392.946 26.067 C 392.641 26.355,392.416 26.666,392.448 26.759 C 392.479 26.853,392.352 26.940,392.167 26.954 C 391.982 26.968,391.713 27.097,391.570 27.240 C 391.427 27.383,391.201 27.500,391.069 27.500 C 390.835 27.500,390.559 27.617,389.792 28.040 C 389.520 28.190,387.882 28.264,383.875 28.306 L 378.333 28.364 378.333 21.932 L 378.333 15.500 383.083 15.500 C 386.139 15.500,387.833 15.559,387.833 15.667 M64.858 18.613 C 64.982 18.713,65.327 18.847,65.625 18.911 C 65.923 18.974,66.167 19.096,66.167 19.180 C 66.167 19.264,66.289 19.333,66.439 19.333 C 66.721 19.333,67.833 20.406,67.833 20.679 C 67.833 20.764,67.906 20.833,67.994 20.833 C 68.083 20.833,68.205 21.208,68.266 21.667 C 68.327 22.125,68.442 22.500,68.521 22.500 C 68.601 22.500,68.667 22.800,68.667 23.167 C 68.667 23.533,68.601 23.833,68.521 23.833 C 68.442 23.833,68.327 24.208,68.266 24.667 C 68.205 25.125,68.083 25.500,67.994 25.500 C 67.906 25.500,67.833 25.570,67.833 25.655 C 67.833 26.148,65.977 27.500,65.300 27.500 C 65.172 27.500,64.989 27.577,64.895 27.672 C 64.790 27.777,63.250 27.857,60.903 27.880 L 57.083 27.917 57.130 23.212 L 57.177 18.507 60.713 18.462 C 64.981 18.407,64.586 18.393,64.858 18.613 M15.333 18.645 C 15.333 18.725,15.633 18.839,16.000 18.897 C 16.367 18.956,16.667 19.070,16.667 19.151 C 16.667 19.231,16.849 19.343,17.072 19.399 C 17.295 19.455,17.525 19.651,17.583 19.834 C 17.642 20.017,17.759 20.167,17.845 20.167 C 17.930 20.167,18.000 20.271,18.000 20.399 C 18.000 20.527,18.113 20.674,18.250 20.727 C 18.387 20.780,18.500 21.006,18.500 21.231 C 18.500 21.455,18.582 21.666,18.681 21.699 C 18.931 21.783,18.937 24.549,18.687 24.632 C 18.584 24.666,18.500 24.878,18.500 25.102 C 18.500 25.327,18.387 25.554,18.250 25.606 C 18.112 25.659,18.000 25.807,18.000 25.934 C 18.000 26.062,17.930 26.167,17.845 26.167 C 17.759 26.167,17.642 26.316,17.583 26.500 C 17.525 26.683,17.295 26.878,17.072 26.934 C 16.849 26.990,16.667 27.097,16.667 27.171 C 16.667 27.305,15.700 27.593,15.458 27.532 C 15.390 27.514,15.333 27.575,15.333 27.667 C 15.333 27.773,13.944 27.833,11.500 27.833 L 7.667 27.833 7.667 23.167 L 7.667 18.500 11.500 18.500 C 13.608 18.500,15.333 18.565,15.333 18.645 M130.167 18.659 C 130.167 18.747,130.429 18.867,130.750 18.928 C 131.071 18.988,131.333 19.104,131.333 19.185 C 131.333 19.267,131.418 19.333,131.522 19.333 C 131.743 19.333,132.833 20.452,132.833 20.679 C 132.833 20.764,132.906 20.833,132.994 20.833 C 133.083 20.833,133.205 21.208,133.266 21.667 C 133.327 22.125,133.442 22.500,133.521 22.500 C 133.601 22.500,133.667 22.725,133.667 23.000 C 133.667 23.275,133.601 23.500,133.522 23.500 C 133.442 23.500,133.340 23.830,133.294 24.233 C 133.247 24.654,133.062 25.126,132.861 25.342 C 132.669 25.548,132.548 25.775,132.592 25.847 C 132.636 25.918,132.520 26.024,132.336 26.083 C 132.151 26.141,132.000 26.259,132.000 26.345 C 132.000 26.430,131.904 26.500,131.787 26.500 C 131.670 26.500,131.468 26.646,131.340 26.824 C 131.211 27.003,131.036 27.106,130.951 27.053 C 130.866 27.000,130.732 27.061,130.654 27.187 C 130.541 27.370,129.659 27.428,126.340 27.473 L 122.167 27.530 122.167 23.015 L 122.167 18.500 126.167 18.500 C 128.596 18.500,130.167 18.562,130.167 18.659 M222.004 20.667 C 222.077 20.667,222.188 20.967,222.250 21.333 C 222.312 21.700,222.431 22.000,222.515 22.000 C 222.598 22.000,222.667 22.181,222.667 22.403 C 222.667 22.624,222.748 22.833,222.847 22.866 C 222.946 22.899,223.066 23.224,223.115 23.588 C 223.164 23.952,223.261 24.287,223.331 24.333 C 223.402 24.379,223.512 24.735,223.577 25.124 C 223.642 25.513,223.764 25.874,223.848 25.926 C 223.932 25.977,224.000 26.165,224.000 26.343 C 224.000 26.521,224.068 26.667,224.152 26.667 C 224.236 26.667,224.355 26.966,224.417 27.332 C 224.478 27.699,224.593 28.038,224.672 28.086 C 224.750 28.135,224.864 28.510,224.926 28.921 C 224.987 29.331,225.104 29.667,225.186 29.667 C 225.267 29.667,225.333 29.854,225.333 30.083 C 225.333 30.313,225.400 30.500,225.481 30.500 C 225.562 30.500,225.679 30.837,225.741 31.250 C 225.803 31.662,225.918 32.000,225.996 32.000 C 226.074 32.000,226.188 32.300,226.250 32.667 C 226.312 33.033,226.423 33.333,226.496 33.333 C 226.569 33.333,226.671 33.540,226.724 33.792 C 226.947 34.873,227.252 35.833,227.371 35.833 C 227.442 35.833,227.500 35.946,227.500 36.083 C 227.500 36.301,226.704 36.333,221.333 36.333 C 215.963 36.333,215.167 36.301,215.167 36.083 C 215.167 35.946,215.241 35.833,215.331 35.833 C 215.422 35.833,215.544 35.533,215.603 35.167 C 215.661 34.800,215.775 34.500,215.855 34.500 C 215.935 34.500,216.000 34.317,216.000 34.093 C 216.000 33.869,216.071 33.643,216.157 33.589 C 216.243 33.536,216.364 33.156,216.426 32.746 C 216.487 32.336,216.603 32.000,216.684 32.000 C 216.764 32.000,216.877 31.700,216.936 31.333 C 216.995 30.967,217.108 30.667,217.188 30.667 C 217.268 30.667,217.333 30.521,217.333 30.343 C 217.333 30.165,217.404 29.976,217.490 29.923 C 217.577 29.869,217.698 29.490,217.759 29.079 C 217.821 28.669,217.937 28.333,218.017 28.333 C 218.097 28.333,218.211 28.033,218.269 27.667 C 218.328 27.300,218.441 27.000,218.521 27.000 C 218.601 27.000,218.667 26.813,218.667 26.583 C 218.667 26.354,218.737 26.167,218.823 26.167 C 218.909 26.167,219.030 25.829,219.092 25.417 C 219.154 25.004,219.261 24.667,219.331 24.667 C 219.400 24.667,219.505 24.367,219.564 24.000 C 219.623 23.633,219.745 23.333,219.835 23.333 C 219.926 23.333,220.000 23.150,220.000 22.927 C 220.000 22.703,220.071 22.476,220.157 22.423 C 220.243 22.369,220.364 21.990,220.426 21.579 C 220.487 21.169,220.598 20.833,220.671 20.833 C 220.744 20.833,220.855 20.533,220.917 20.167 C 220.979 19.800,221.106 19.500,221.199 19.500 C 221.293 19.500,221.328 19.392,221.277 19.261 C 221.227 19.129,221.275 18.991,221.384 18.953 C 221.512 18.910,221.635 19.205,221.727 19.776 C 221.806 20.266,221.931 20.667,222.004 20.667 "
      stroke="none"
      fill="#4c4c4c"
      fill-rule="evenodd"
    /><path
      id="path2"
      d="M241.580 30.083 C 241.580 40.167,241.600 44.267,241.625 39.196 C 241.649 34.124,241.649 25.874,241.625 20.862 C 241.600 15.850,241.580 20.000,241.580 30.083 "
      stroke="none"
      fill="#4c4c54"
      fill-rule="evenodd"
    /><path
      id="path3"
      d=""
      stroke="none"
      fill="#44989c"
      fill-rule="evenodd"
    /><path
      id="path4"
      d="M3.803 11.625 C 5.941 11.651,9.391 11.651,11.470 11.625 C 13.549 11.598,11.800 11.577,7.583 11.577 C 3.367 11.577,1.666 11.598,3.803 11.625 M34.542 11.624 C 35.527 11.654,37.140 11.654,38.125 11.624 C 39.110 11.595,38.304 11.571,36.333 11.571 C 34.362 11.571,33.556 11.595,34.542 11.624 M53.542 11.625 C 55.627 11.651,59.040 11.651,61.125 11.625 C 63.210 11.598,61.504 11.577,57.333 11.577 C 53.163 11.577,51.456 11.598,53.542 11.625 M88.458 11.625 C 91.781 11.650,97.219 11.650,100.542 11.625 C 103.865 11.600,101.146 11.579,94.500 11.579 C 87.854 11.579,85.135 11.600,88.458 11.625 M118.542 11.625 C 120.627 11.651,124.040 11.651,126.125 11.625 C 128.210 11.598,126.504 11.577,122.333 11.577 C 118.162 11.577,116.456 11.598,118.542 11.625 "
      stroke="none"
      fill="#447464"
      fill-rule="evenodd"
    /></g></svg>
