<?xml version="1.0" encoding="utf-8"?>
<!-- Generator: Adobe Illustrator 19.1.0, SVG Export Plug-In . SVG Version: 6.00 Build 0)  -->
<svg version="1.1" id="Artwork" xmlns="http://www.w3.org/2000/svg" xmlns:xlink="http://www.w3.org/1999/xlink" x="0px" y="0px"
	 viewBox="0 0 288 101.4" width="175" height="62" style="enable-background:new 0 0 288 101.4;" xml:space="preserve">
<style type="text/css">
	.st0{fill:#969696;}
</style>
<g>
	<g id="Logo">
		<g id="PWP_1_">
			<path id="P_W_P" d="M93,0.3l11.7,29.2l-5,12.5L83,0.3H93z M103.5,0.3l16.7,41.8l5-12.5L113.5,0.3H103.5z M130.2,12.8l5-12.5h-10
				L130.2,12.8z M0,42.1h10V0.3H0V42.1z M16.9,0.3h-3.2v0.2h1.1c5.3,0,10.1,4,10.1,12.9c0,8.9-4.8,12.9-10.1,12.9h-1.1v0.2h3.2
				c10.5,0,18-4.1,18-13.1C34.8,4.4,27.4,0.3,16.9,0.3z M186.3,42.1h10V0.3h-10V42.1z M203.2,0.3H200v0.2h1.1
				c5.3,0,10.1,4,10.1,12.9c0,8.9-4.8,12.9-10.1,12.9H200v0.2h3.2c10.5,0,18-4.1,18-13.1C221.1,4.4,213.7,0.3,203.2,0.3z"/>
			
				<rect id="Slash" x="156" y="-1.2" transform="matrix(0.9317 0.3633 -0.3633 0.9317 18.4392 -55.5692)" class="st0" width="1.9" height="44.8"/>
			
				<rect id="Slash_1_" x="54.2" y="-1.2" transform="matrix(0.9316 0.3634 -0.3634 0.9316 11.4866 -18.6011)" class="st0" width="1.9" height="44.8"/>
		</g>
		<g id="Partners_1_">
			<path id="Partners" class="st0" d="M58.8,59.8h-5.5v14.8h1.7v-5.2h3.6c3.2,0,5.8-1.7,5.8-4.8v0C64.3,61.6,62.1,59.8,58.8,59.8z
				 M62.6,64.6c0,1.9-1.6,3.3-4.1,3.3h-3.7v-6.5h3.7C61,61.3,62.6,62.5,62.6,64.6L62.6,64.6z M78.8,74.6H68V59.8h10.7v1.5h-9v5.1
				h8.1v1.5h-8.1v5.2h9.1V74.6z M84.3,68.9h4.2l4.3,5.8h2.1l-4.6-6.1c2.3-0.4,4-1.9,4-4.3v0c0-1.2-0.4-2.2-1.1-2.9
				c-0.9-0.9-2.4-1.5-4.2-1.5h-6.4v14.8h1.7V68.9z M84.3,61.3h4.6c2.4,0,3.8,1.1,3.8,2.9v0c0,1.9-1.6,3-3.8,3h-4.6V61.3z
				 M109.5,74.6H98.7V59.8h10.7v1.5h-9v5.1h8.1v1.5h-8.1v5.2h9.1V74.6z M123.4,74.6h-10V59.8h1.7v13.3h8.3V74.6z M137.1,74.6h-10
				V59.8h1.7v13.3h8.3V74.6z M153.3,74.6h1.8l-6.8-14.9h-1.6L140,74.6h1.7l1.8-3.9h8.1L153.3,74.6z M144.1,69.2l3.4-7.5l3.4,7.5
				H144.1z M184.1,59.8h1.8l-5.3,14.9h-1.4l-4.1-12l-4.1,12h-1.4l-5.3-14.9h1.8l4.2,12.3l4.1-12.4h1.4l4.1,12.4L184.1,59.8z
				 M191.1,73.1h9.1v1.5h-10.8V59.8h10.7v1.5h-9v5.1h8.1v1.5h-8.1V73.1z M204.2,59.8h1.7v14.8h-1.7V59.8z M221.9,59.8h1.6v14.8h-1.3
				l-9.6-12.2v12.2H211V59.8h1.6l9.3,11.9V59.8z M237.3,67c1.2-0.5,2.3-1.5,2.3-3.4v0c0-1-0.3-1.7-1-2.4c-0.8-0.8-2.2-1.3-3.9-1.3
				h-6.3v14.8h6.6c3.2,0,5.4-1.5,5.4-4v0C240.5,68.5,239.1,67.5,237.3,67z M230.2,61.3h4.5c2.1,0,3.3,1,3.3,2.4v0
				c0,1.7-1.4,2.6-3.4,2.6h-4.4V61.3z M238.8,70.5c0,1.7-1.4,2.6-3.6,2.6h-5v-5.2h4.7C237.5,67.9,238.8,68.8,238.8,70.5L238.8,70.5z
				 M246.4,73.1h9.1v1.5h-10.8V59.8h10.7v1.5h-9v5.1h8.1v1.5h-8.1V73.1z M271.1,64.3L271.1,64.3c0-1.2-0.4-2.2-1.1-3
				c-0.9-0.9-2.4-1.5-4.2-1.5h-6.4v14.8h1.7v-5.8h4.2l4.3,5.8h2.1l-4.6-6.1C269.4,68.1,271.1,66.7,271.1,64.3z M261.1,67.4v-6h4.6
				c2.4,0,3.8,1.1,3.8,2.9v0c0,1.9-1.6,3-3.8,3H261.1z M288,66.7v5.9c-1.4,1.2-3.5,2.3-5.9,2.3c-4.7,0-7.5-3.4-7.5-7.6v0
				c0-4.1,3-7.7,7.4-7.7c2.5,0,4,0.7,5.5,2l-1.1,1.3c-1.1-1-2.4-1.7-4.5-1.7c-3.3,0-5.6,2.8-5.6,6.1v0c0,3.5,2.3,6.2,5.9,6.2
				c1.7,0,3.3-0.7,4.3-1.5v-3.7h-4.5v-1.5H288z M58.8,85.8h-5.5v14.8h1.7v-5.2h3.6c3.2,0,5.8-1.6,5.8-4.8v0
				C64.3,87.6,62.1,85.8,58.8,85.8z M62.6,90.6c0,1.9-1.6,3.3-4.1,3.3h-3.7v-6.5h3.7C61,87.3,62.6,88.4,62.6,90.6L62.6,90.6z
				 M72.2,85.7l-6.8,14.9h1.7l1.8-3.9H77l1.7,3.9h1.8l-6.8-14.9H72.2z M69.6,95.2l3.4-7.5l3.4,7.5H69.6z M95.8,90.2L95.8,90.2
				c0-1.2-0.4-2.2-1.1-3c-0.9-0.9-2.4-1.5-4.2-1.5H84v14.8h1.7v-5.8h4.2l4.3,5.8h2.1l-4.6-6.1C94.1,94.1,95.8,92.7,95.8,90.2z
				 M85.7,93.3v-6h4.6c2.4,0,3.8,1.1,3.8,2.9v0c0,1.9-1.6,3-3.8,3H85.7z M98.7,85.8h11.6v1.5h-5v13.3h-1.7V87.3h-5V85.8z
				 M124.8,85.8h1.6v14.8h-1.3l-9.6-12.2v12.2h-1.6V85.8h1.6l9.3,11.9V85.8z M133.2,99.1h9.1v1.5h-10.8V85.8h10.7v1.5h-9v5.1h8.1
				v1.5h-8.1V99.1z M157.9,90.2L157.9,90.2c0-1.2-0.4-2.2-1.1-3c-0.9-0.9-2.4-1.5-4.2-1.5h-6.4v14.8h1.7v-5.8h4.2l4.3,5.8h2.1
				l-4.6-6.1C156.2,94.1,157.9,92.7,157.9,90.2z M147.9,93.3v-6h4.6c2.4,0,3.8,1.1,3.8,2.9v0c0,1.9-1.6,3-3.8,3H147.9z M172.2,96.6
				L172.2,96.6c0,2.6-2.1,4.2-5.1,4.2c-2.3,0-4.3-0.8-6.1-2.4l1-1.2c1.5,1.4,3,2.1,5.1,2.1c2,0,3.3-1.1,3.3-2.5v0
				c0-1.4-0.7-2.2-3.9-2.8c-3.4-0.7-5-1.8-5-4.3v0c0-2.3,2.1-4,4.9-4c2.2,0,3.7,0.6,5.2,1.8l-1,1.3c-1.4-1.1-2.8-1.6-4.3-1.6
				c-1.9,0-3.2,1.1-3.2,2.4v0c0,1.4,0.8,2.2,4,2.9C170.7,93.1,172.2,94.3,172.2,96.6z"/>
			
				<rect id="Slash_2_" x="31.2" y="57.8" transform="matrix(0.9317 0.3633 -0.3633 0.9317 31.3238 -6.1881)" class="st0" width="1.9" height="44.8"/>
		</g>
	</g>
</g>
</svg>
