<svg id="Layer_1" data-name="Layer 1" xmlns="http://www.w3.org/2000/svg" viewBox="0 0 389.4 275.4"><defs><style>.cls-1{fill:#070b31;}</style></defs><path class="cls-1" d="M169.6,180.7S232.5,4.3,232.9,3.2c1.2-2.6,2.4-3.2,5-3.2h39.7L210,180.7H169.6" transform="translate(0 0)"/><path class="cls-1" d="M77.3,77.7c-.8.3-5.3,1.8-6,2.1l2.1,2.8,13.9,17.8c3.3,4.2,8.2,4.8,14.4,2.4C129.1,91.7,219,54.2,333.6,69,333.6,69,225,20.8,77.3,77.7Z" transform="translate(0 0)"/><path class="cls-1" d="M210.1,180.7H169.7L102,0h39.7c2.7,0,3.8.6,5.1,3.2.4,1,63.3,177.5,63.3,177.5" transform="translate(0 0)"/><path class="cls-1" d="M210.1,180.7H169.7L102,0h39.7c2.7,0,3.8.6,5.1,3.2.4,1,63.3,177.5,63.3,177.5" transform="translate(0 0)"/><path class="cls-1" d="M27.9,274.8c-6.4-13.6-15-32.4-18.3-39.5s-4.8-7.4-9.6-7.9V225H26.2v2.4l-3.1.3c-3.4.4-3.6,1.1-2.4,4.2,1.7,4.2,8.8,19.2,13.7,29.6,3.1-6.7,10-23.9,11.5-27.4,2.1-5.1,1.4-6-2.7-6.4l-2.7-.2V225H62v2.4c-5.6.5-6.6.9-10.5,8.3-.5,1.1-11.8,23.6-18.6,39Z" transform="translate(0 0)"/><path class="cls-1" d="M119.7,262.7c0,8.2.7,8.7,7.5,9.2v2.4H100.4v-2.4c6.7-.5,7.4-1,7.4-9.2V236.6c0-8.2-.7-8.7-7.4-9.2V225h26.7v2.4c-6.7.5-7.5,1-7.5,9.2Z" transform="translate(0 0)"/><path class="cls-1" d="M172.2,259.7c1.5,4.2,6.7,12.3,15.7,12.3,6,0,9.4-3.7,9.4-8,0-5.1-3.4-7.7-10.3-10.2l-1.8-.7c-7.6-2.8-14.1-7.2-14.1-14.4,0-8.1,7.5-14.9,20.2-14.9a30.31,30.31,0,0,1,8.4,1.1c1.5.4,2.8.7,3.9,1,.4,2.7,1,6.1,1.9,10.7l-3.3.5c-1.8-4.5-4.6-9.9-12.3-9.9-5.6,0-8.8,3.3-8.8,7.6,0,3.9,3.4,6.6,9.9,8.9l2.9,1.1c7.3,2.6,14,6.6,14,14.8,0,8.9-8.5,15.8-21.6,15.8a35.74,35.74,0,0,1-9.2-1.2c-1.8-.5-3.7-1.1-5.5-1.7-.7-2-1.8-7.2-2.8-11.8Z" transform="translate(0 0)"/><path class="cls-1" d="M280,262.7c0,8.2.7,8.7,8.9,9.2v2.4H259.6v-2.4c7.8-.5,8.5-1,8.5-9.2V228.4h-2.3c-7.4,0-9.8.9-11.2,2.2-1.2,1.1-2.3,3.2-3.4,7h-3.3c.4-5.4.9-10.6,1.1-14.5h1.7c1.6,1.7,2.5,1.9,5,1.9h36.6a5.9,5.9,0,0,0,5-1.9H299c.1,3.2.5,9.1,1,14.2l-3.3.2c-.9-4.1-1.9-6.2-3.4-7.4s-4.5-1.8-9.8-1.8H280Z" transform="translate(0 0)"/><path class="cls-1" d="M356.5,238.3h.3l6.5,15.6H350Zm8,35.9h24.9v-2.4c-4.8-.5-6.3-.8-9.5-8-3.5-7.6-7.5-16.7-11.3-25.7l-6-14.1-4.5,1.1-18.4,39c-3.2,6.8-4.4,7.2-9.8,7.7v2.4h20.5v-2.4l-2.3-.2c-4.2-.4-4.4-1.2-3-5,1.2-3.3,2.4-6.6,3.5-8.8h16.1c1.4,2.8,3.1,6.8,4.3,9.2,1.5,3.3,1.1,4.1-2.3,4.5l-2.4.3v2.4Z" transform="translate(0 0)"/></svg>